<svg xmlns="http://www.w3.org/2000/svg" xmlns:xlink="http://www.w3.org/1999/xlink" viewBox="0 0 2400 1600" xmlns:v="https://vecta.io/nano"><style><![CDATA[.I{fill:#fff}.J{font-family:ArialMT}.K{font-size:108.122px}.L{fill:#f2f2f2}.M{stroke-dasharray:11.7941,11.7941}.N{stroke-dasharray:11.9792,11.9792}]]></style><path d="M0 0h2400v1600H0z"/><path d="M1118.66 604.06c-9.23 0-16.73-7.51-16.73-16.73v-104.1c0-9.23 7.51-16.73 16.73-16.73h1005.11c9.23 0 16.73 7.51 16.73 16.73v104.09c0 9.23-7.51 16.73-16.73 16.73H1118.66z" class="L"/><path d="M2123.77 468c8.4 0 15.23 6.83 15.23 15.23v104.09c0 8.4-6.83 15.23-15.23 15.23H1118.66c-8.4 0-15.23-6.83-15.23-15.23V483.23c0-8.4 6.83-15.23 15.23-15.23h1005.11m0-3H1118.66a18.23 18.23 0 0 0-18.23 18.23v104.09a18.23 18.23 0 0 0 18.23 18.23h1005.11a18.23 18.23 0 0 0 18.23-18.23V483.23a18.23 18.23 0 0 0-18.23-18.23h0z"/><path d="M1118.66 780.65c-9.23 0-16.73-7.51-16.73-16.73V659.83c0-9.23 7.51-16.73 16.73-16.73h1005.11c9.23 0 16.73 7.51 16.73 16.73v104.09c0 9.23-7.51 16.73-16.73 16.73H1118.66z" class="L"/><path d="M2123.77 644.6c8.4 0 15.23 6.83 15.23 15.23v104.09c0 8.4-6.83 15.23-15.23 15.23H1118.66c-8.4 0-15.23-6.83-15.23-15.23V659.83c0-8.4 6.83-15.23 15.23-15.23h1005.11m0-3H1118.66a18.23 18.23 0 0 0-18.23 18.23v104.09a18.23 18.23 0 0 0 18.23 18.23h1005.11a18.23 18.23 0 0 0 18.23-18.23V659.83a18.23 18.23 0 0 0-18.23-18.23h0z"/><path d="M1118.66 957.25c-9.23 0-16.73-7.51-16.73-16.73V836.43c0-9.23 7.51-16.73 16.73-16.73h1005.11c9.23 0 16.73 7.51 16.73 16.73v104.09c0 9.23-7.51 16.73-16.73 16.73H1118.66z" class="L"/><path d="M2123.77 821.2c8.4 0 15.23 6.83 15.23 15.23v104.09c0 8.4-6.83 15.23-15.23 15.23H1118.66c-8.4 0-15.23-6.83-15.23-15.23V836.43c0-8.4 6.83-15.23 15.23-15.23h1005.11m0-3H1118.66a18.23 18.23 0 0 0-18.23 18.23v104.09a18.23 18.23 0 0 0 18.23 18.23h1005.11a18.23 18.23 0 0 0 18.23-18.23V836.43a18.23 18.23 0 0 0-18.23-18.23h0z"/><path d="M1118.66 1133.85c-9.23 0-16.73-7.51-16.73-16.73v-104.09c0-9.23 7.51-16.73 16.73-16.73h1005.11c9.23 0 16.73 7.51 16.73 16.73v104.09c0 9.23-7.51 16.73-16.73 16.73H1118.66z" class="L"/><path d="M2123.77 997.79c8.4 0 15.23 6.83 15.23 15.23v104.09c0 8.4-6.83 15.23-15.23 15.23H1118.66c-8.4 0-15.23-6.83-15.23-15.23v-104.09c0-8.4 6.83-15.23 15.23-15.23h1005.11m0-3H1118.66a18.23 18.23 0 0 0-18.23 18.23v104.09a18.23 18.23 0 0 0 18.23 18.23h1005.11a18.23 18.23 0 0 0 18.23-18.23v-104.09c0-10.06-8.16-18.23-18.23-18.23h0z"/><text transform="translate(1986.983 572.822)" class="J K">B</text><text transform="translate(1986.733 753.031)" class="J K">C</text><text transform="translate(1986.733 927.828)" class="J K">X</text><text transform="translate(1986.733 1108.031)" class="J K">U</text><use xlink:href="#B"/><path d="M1282.34 467.6c8.4 0 15.23 6.83 15.23 15.23v104.09c0 8.4-6.83 15.23-15.23 15.23H277.23c-8.4 0-15.23-6.83-15.23-15.23V482.83c0-8.4 6.83-15.23 15.23-15.23h1005.11m0-3H277.23A18.23 18.23 0 0 0 259 482.83v104.09a18.23 18.23 0 0 0 18.23 18.23h1005.11a18.23 18.23 0 0 0 18.23-18.23V482.83a18.23 18.23 0 0 0-18.23-18.23h0z" class="I"/><use xlink:href="#B" y="176.6"/><path d="M1282.34 644.2c8.4 0 15.23 6.83 15.23 15.23v104.09c0 8.4-6.83 15.23-15.23 15.23H277.23c-8.4 0-15.23-6.83-15.23-15.23V659.43c0-8.4 6.83-15.23 15.23-15.23h1005.11m0-3H277.23A18.23 18.23 0 0 0 259 659.43v104.09a18.23 18.23 0 0 0 18.23 18.23h1005.11a18.23 18.23 0 0 0 18.23-18.23V659.43a18.23 18.23 0 0 0-18.23-18.23h0z" class="I"/><use xlink:href="#B" y="353.2"/><path d="M1282.34 820.8c8.4 0 15.23 6.83 15.23 15.23v104.09c0 8.4-6.83 15.23-15.23 15.23H277.23c-8.4 0-15.23-6.83-15.23-15.23V836.03c0-8.4 6.83-15.23 15.23-15.23h1005.11m0-3H277.23A18.23 18.23 0 0 0 259 836.03v104.09a18.23 18.23 0 0 0 18.23 18.23h1005.11a18.23 18.23 0 0 0 18.23-18.23V836.03a18.23 18.23 0 0 0-18.23-18.23h0z" class="I"/><path d="M277.23 1133.46c-9.23 0-16.73-7.51-16.73-16.73v-104.09c0-9.23 7.51-16.73 16.73-16.73h1005.11c9.23 0 16.73 7.51 16.73 16.73v104.09c0 9.23-7.51 16.73-16.73 16.73H277.23z"/><path d="M1282.34 997.4c8.4 0 15.23 6.83 15.23 15.23v104.09c0 8.4-6.83 15.23-15.23 15.23H277.23c-8.4 0-15.23-6.83-15.23-15.23v-104.09c0-8.4 6.83-15.23 15.23-15.23h1005.11m0-3H277.23a18.23 18.23 0 0 0-18.23 18.23v104.09a18.23 18.23 0 0 0 18.23 18.23h1005.11a18.23 18.23 0 0 0 18.23-18.23v-104.09a18.23 18.23 0 0 0-18.23-18.23h0z" class="I"/><text transform="translate(344.296 569.72)" class="I J K">A</text><text transform="translate(344.045 749.929)" class="I J K">B</text><text transform="translate(344.045 924.727)" class="I J K">C</text><text transform="translate(344.045 1104.93)" class="I J K">D</text><path d="M1044.18 285.61h495.56V1339.8h-495.56z" opacity=".31" class="I"/><g fill="none" stroke="#fff" stroke-width="4" stroke-miterlimit="10"><path d="M1538.84 1332.89v6h-6"/><path d="M1521.04 1338.89h-465.87" class="M"/><path d="M1049.28 1338.89h-6v-6"/><path d="M1043.28 1320.91V296.7" class="N"/><path d="M1043.28 290.71v-6h6"/><path d="M1061.07 284.71h465.87" class="M"/><path d="M1532.84 284.71h6v6"/><path d="M1538.84 302.68V1326.9" class="N"/></g><defs ><path id="B" d="M277.23 603.66c-9.23 0-16.73-7.51-16.73-16.73v-104.1c0-9.23 7.51-16.73 16.73-16.73h1005.11c9.23 0 16.73 7.51 16.73 16.73v104.09c0 9.23-7.51 16.73-16.73 16.73H277.23z"/></defs></svg>